<svg xmlns="http://www.w3.org/2000/svg" width="820" height="320" viewBox="0 0 820 320" role="img" aria-labelledby="title desc">
  <title id="title">HTTP/2 POST echo latency (fair, 13B, -c40 -m250)</title>
  <desc id="desc">p95/p99 request latency: galay-echo vs clean nghttp2 echo. 13B payload, -t4 -c40 -m250.</desc>
  <rect width="820" height="320" fill="#ffffff"/>
  <text x="28" y="34" font-family="Arial, sans-serif" font-size="20" fill="#111827">HTTP/2 POST echo latency (fair, 13B, -c40 -m250)</text>
  <text x="28" y="58" font-family="Arial, sans-serif" font-size="12" fill="#4b5563">Lower is better. h2load request p95 / p99 · galay vs clean nghttp2 echo</text>
  <line x1="180" y1="86" x2="780" y2="86" stroke="#e5e7eb"/>
  <line x1="180" y1="136" x2="780" y2="136" stroke="#e5e7eb"/>
  <line x1="180" y1="186" x2="780" y2="186" stroke="#e5e7eb"/>
  <line x1="180" y1="236" x2="780" y2="236" stroke="#e5e7eb"/>
  <text x="28" y="113" font-family="Arial, sans-serif" font-size="14" fill="#111827">galay p95</text>
  <rect x="180" y="96" width="12" height="24" rx="3" fill="#2563eb"/>
  <text x="200" y="113" font-family="Arial, sans-serif" font-size="14" fill="#111827">6.93 ms</text>
  <text x="28" y="163" font-family="Arial, sans-serif" font-size="14" fill="#111827">galay p99</text>
  <rect x="180" y="146" width="13" height="24" rx="3" fill="#60a5fa"/>
  <text x="201" y="163" font-family="Arial, sans-serif" font-size="14" fill="#111827">7.66 ms</text>
  <text x="28" y="213" font-family="Arial, sans-serif" font-size="14" fill="#111827">nghttp2-echo p95</text>
  <rect x="180" y="196" width="285" height="24" rx="3" fill="#f97316"/>
  <text x="473" y="213" font-family="Arial, sans-serif" font-size="14" fill="#111827">167.14 ms</text>
  <text x="28" y="263" font-family="Arial, sans-serif" font-size="14" fill="#111827">nghttp2-echo p99</text>
  <rect x="180" y="246" width="600" height="24" rx="3" fill="#fb923c"/>
  <text x="690" y="263" font-family="Arial, sans-serif" font-size="14" fill="#ffffff">352.18 ms</text>
  <text x="28" y="300" font-family="Arial, sans-serif" font-size="12" fill="#6b7280">Source: benchmark_data/h2load_post_echo_compare_2026-07-04.csv</text>
</svg>
